<svg id="Layer_1" version="1.1" viewBox="0 0 100 100" xml:space="preserve" xmlns="http://www.w3.org/2000/svg"
    enable-background="new 0 0 100 100">
    <path
        d="M40.3 47.6c1.1-4.4 5-7.6 9.7-7.6 4.7 0 8.6 3.2 9.7 7.6 18.5.3 34.8 1.4 35.3 3.5V50C95 25.1 74.9 5 50 5S5 25.1 5 50v1.1c.5-2 16.8-3.2 35.3-3.5zM37.1 57.6C39.7 62.1 44.6 65 50 65s10.2-2.9 12.9-7.4c13.9.3 21.9 1 26 1.6C84.7 77.1 68.7 90 50 90S15.3 77.1 11.1 59.3c4.1-.7 12.1-1.4 26-1.7m3.2-5c-17.2.3-32.5 1.3-35 3.1C8.2 77.8 27.1 95 50 95c22.9 0 41.8-17.1 44.6-39.3-2.5-1.8-17.7-2.8-35-3.1-1.1 4.3-5 7.4-9.7 7.4-4.5 0-8.4-3.2-9.6-7.4z"
        fill="#e85656" class="fill-000000"></path>
</svg>
